<?xml version="1.0" encoding="utf-8" standalone="no"?>
<!-- http://web.chacuo.net/formatxml -->
<svg xmlnsvg="http://www.w3.org/2000/svg" xmlns="http://www.w3.org/2000/svg" width="350" height="300" version="1.1">
    <spacing>
        <betweenLayers>10</betweenLayers>
        <betweenNodes>35</betweenNodes>
    </spacing>
    <style>
        svg { stroke:#000; fill:none; }
        text { fill:#000; stroke:none; font-size:8px; font-weight: bold; font-family: "Courier New", monospace; }
        .nodelabel { text-anchor: middle; }
        .inputPortLabel { text-anchor: end; }
        .splitjoinBody { fill:#000; }
    </style>
    <!-- input -->
    <g type="input" transform="translate(50,50)" width="30" height="30">
        <text x="15" y="-4" class="nodelabel $cell_id" attribute="ref">input</text>
        <alias val="input" />
        <alias val="$_input_" />
        <path d="M0,0 L0,30 L15,30 L30,15 L15,0 Z" class="$cell_id" />
        <g x="30" y="15" pid="dout" />
    </g>
    <!-- output -->
    <g type="output" transform="translate(150,50)" width="30" height="30">
        <text x="15" y="-4" class="nodelabel $cell_id" attribute="ref">output</text>
        <alias val="output" />
        <alias val="$_output_" />
        <path d="M30,0 L30,30 L15,30 L0,15 L15,0 Z" class="$cell_id" />
        <g x="0" y="15" pid="din" />
    </g>
    <!-- jand -->
    <g type="jand" transform="translate(50,100)" width="30" height="30">
        <text x="15" y="17" class="nodelabel $cell_id">jand</text>
        <alias val="jand" />
        <alias val="$_JAND_" />
        <path d="M15,0 L30,0 L30,30 L15,30" class="$cell_id" />
        <path d="M0,0 L0,30 L15,30 A15 15 0 0 0 15,0 Z" class="$cell_id" />
        <path class="$cell_id" d="M5,0 L10,5 L15,0" />
        <g x="10" y="0" pid="clk" />
        <g x="0" y="5" pid="dina" />
        <g x="0" y="20" pid="dinb" />
        <g x="30" y="12.5" pid="dout" />
    </g>
    <!-- jor -->
    <g type="jor" transform="translate(150,100)" width="30" height="30">
        <text x="15" y="17" class="nodelabel $cell_id">jor</text>
        <alias val="jor" />
        <alias val="$_JOR_" />
        <path d="M0,0 L0,30 L30,30 L30,0 Z" class="$cell_id" />
        <path d="M0,0 A30 30 0 0 1 0,30" class="$cell_id" />
        <path d="M15,0 A15 15 0 0 1 15,30" class="$cell_id" />
        <path class="$cell_id" d="M5,0 L10,5 L15,0" />
        <g x="10" y="0" pid="clk" />
        <g x="3" y="5" pid="dina" />
        <g x="3" y="20" pid="dinb" />
        <g x="30" y="12.5" pid="dout" />
    </g>
    <!--jxor -->
    <g type="jxor" transform="translate(150, 150)" width="30" height="30">
        <text x="15" y="17" class="nodelabel $cell_id">jxor</text>
        <alias val="jxor" />
        <alias val="$jxor" />
        <alias val="$_JXOR_" />
        <path d="M0,0 L0,30 L30,30 L30,0 Z" class="$cell_id" />
        <path d="M15,0 A15 15 0 0 1 15,30" class="$cell_id" />
        <path d="M0,0 A30 30 0 0 1 0,30" class="$cell_id" />
        <path d="M3,0 A30 30 0 0 1 3,30" class="$cell_id" />
        <path class="$cell_id" d="M5,0 L10,5 L15,0" />
        <g x="10" y="0" pid="clk" />
        <g x="0" y="10" pid="dina" />
        <g x="0" y="20" pid="dinb" />
        <g x="30" y="15" pid="dout" />
    </g>
    <!-- jnot -->
    <g type="jnot" transform="translate(250,100)" width="30" height="30">
        <text x="15" y="17" class="nodelabel $cell_id">jnot</text>
        <alias val="jnot" />
        <alias val="$_JNOT_" />
        <path d="M0,0 L0,30 L30,30 L30,0 Z" class="$cell_id" />
        <path d="M15,0 L30,15 L15,30" class="$cell_id" />
        <circle cx="30" cy="15" r="3" class="$cell_id" />
        <path class="$cell_id" d="M5,0 L10,5 L15,0" />
        <g x="10" y="0" pid="clk" />
        <g x="0" y="10" pid="din" />
        <g x="25" y="10" pid="dout" />
    </g>
    <!-- jdff -->
    <g type="jdff" transform="translate(50,150)" width="30" height="30">
        <text x="15" y="17" class="nodelabel $cell_id">jdff</text>
        <alias val="jdff" />
        <alias val="$_JDFF_" />
        <rect width="30" height="30" x="0" y="0" class="$cell_id" />
        <path class="$cell_id" d="M5,0 L10,5 L15,0" />
        <g x="0" y="15" pid="din" />
        <g x="10" y="0" pid="clk" />
        <g x="30" y="15" pid="dout" />
    </g>
    <!-- jtl -->
    <g type="jtl" transform="translate(50,200)" width="30" height="30">
        <text x="15" y="10" class="nodelabel $cell_id">jtl</text>
        <alias val="jtl" />
        <alias val="$_JTL_" />
        <rect width="30" height="30" x="0" y="0" class="$cell_id" />
        <path d="M0,15 L30,15" class="$cell_id" />
        <path d="M27,13 L30,15 L27,17" class="$cell_id" />
        <g x="0" y="15" pid="din" />
        <g x="30" y="15" pid="dout" />
    </g>
    <!-- jcb -->
    <g type="jcb" transform="translate(150,200)" width="30" height="30">
        <text x="15" y="25" class="nodelabel $cell_id">jcb</text>
        <alias val="jcb" />
        <alias val="$_JCB_" />
        <rect width="30" height="30" x="0" y="0" class="$cell_id" />
        <path d="M0,15 L30,15" class="$cell_id" />
        <path d="M15,0 L15,15" class="$cell_id" />
        <path d="M27,13 L30,15 L27,17" class="$cell_id" />
        <path d="M13,12 L15,15 L17,12" class="$cell_id" />
        <g x="0" y="15" pid="dina" />
        <g x="15" y="0" pid="dinb" />
        <g x="30" y="15" pid="dout" />
    </g>
    <!-- jspl -->
    <g type="jspl" transform="translate(250,200)" width="30" height="30">
        <text x="15" y="25" class="nodelabel $cell_id">jspl</text>
        <alias val="jspl" />
        <alias val="$_JSPL_" />
        <rect width="30" height="30" x="0" y="0" class="$cell_id" />
        <path d="M0,15 L30,15" class="$cell_id" />
        <path d="M15,0 L15,15" class="$cell_id" />
        <path d="M27,13 L30,15 L27,17" class="$cell_id" />
        <path d="M13,3 L15,0 L17,3" class="$cell_id" />
        <g x="0" y="15" pid="din" />
        <g x="15" y="0" pid="douta" />
        <g x="30" y="15" pid="doutb" />
    </g>
    <!-- jptl -->
    <g type="jptl" transform="translate(50,250)" width="30" height="30">
        <text x="15" y="10" class="nodelabel $cell_id">jptl</text>
        <alias val="jptl" />
        <alias val="$_JPTL_" />
        <rect width="30" height="30" x="0" y="0" class="$cell_id" />
        <path d="M0,12 L25,12 L25,8 L30,15 L25,22 L25,18 L0,18" class="$cell_id" />
        <g x="0" y="15" pid="din" />
        <g x="30" y="15" pid="dout" />
    </g>
    <!-- jdrvPTL -->
    <g type="jdrvPTL" transform="translate(150,250)" width="30" height="30">
        <text x="10" y="10" class="nodelabel $cell_id">drv</text>
        <alias val="jdrvPTL" />
        <alias val="$_JDRVPTL_" />
        <rect width="30" height="30" x="0" y="0" class="$cell_id" />
        <path d="M30,0 L20,10 L20,20 L30,30" class="$cell_id" />
        <path d="M0,15 L20,15" class="$cell_id" />
        <path d="M17,13 L20,15 L17,17" class="$cell_id" />
        <g x="0" y="15" pid="din" />
        <g x="30" y="15" pid="dout" />
    </g>
    <!-- jrec -->
    <g type="jrecPTL" transform="translate(250,250)" width="30" height="30">
        <text x="19" y="10" class="nodelabel $cell_id">rec</text>
        <alias val="jrecPTL" />
        <alias val="$_JRECPTL_" />
        <rect width="30" height="30" x="0" y="0" class="$cell_id" />
        <path d="M0,0 L10,10 L10,20 L0,30" class="$cell_id" />
        <path d="M10,15 L30,15" class="$cell_id" />
        <path d="M27,13 L30,15 L27,17" class="$cell_id" />
        <g x="0" y="15" pid="din" />
        <g x="30" y="15" pid="dout" />
    </g>
    <!-- generic -->
    <g type="generic" transform="translate(250,50)" width="30" height="30">
        <text x="15" y="-4" class="nodelabel $cell_id" attribute="ref">generic</text>
        <rect width="30" height="30" generic="body" class="$cell_id" />
        <g transform="translate(30, 10)" x="30" y="10" pid="douta">
            <text x="5" y="-4" style="fill:#000; stroke:none" class="$cell_id">douta</text>
        </g>
        <g transform="translate(30, 30)" x="30" y="20" pid="doutb">
            <text x="5" y="-4" style="fill:#000;stroke:none" class="$cell_id">doutb</text>
        </g>
        <g transform="translate(0, 10)" x="0" y="10" pid="dina">
            <text x="-3" y="-4" class="inputPortLabel $cell_id">dina</text>
        </g>
        <g transform="translate(0, 30)" x="0" y="20" pid="dinb">
            <text x="-3" y="-4" class="inputPortLabel $cell_id">dinb</text>
        </g>
    </g>
</svg>
